<?xml version="1.0" standalone="no"?>
<!DOCTYPE svg PUBLIC "-//W3C//DTD SVG 20010904//EN"
 "http://www.w3.org/TR/2001/REC-SVG-20010904/DTD/svg10.dtd">
<svg version="1.0" xmlns="http://www.w3.org/2000/svg"
 width="608.000000pt" height="608.000000pt" viewBox="0 0 608.000000 608.000000"
 preserveAspectRatio="xMidYMid meet">
<metadata>
Created by potrace 1.14, written by Peter Selinger 2001-2017
</metadata>
<g transform="translate(0.000000,608.000000) scale(0.100000,-0.100000)"
fill="#000000" stroke="none">
<path d="M3162 4688 c-6 -6 -8 -17 -5 -26 4 -10 1 -13 -8 -10 -8 3 -13 13 -13
22 1 10 -6 16 -19 16 -16 0 -18 -3 -9 -12 15 -15 15 -28 1 -28 -5 0 -7 5 -4
10 3 6 0 10 -7 10 -7 0 -13 -11 -13 -25 0 -14 3 -25 6 -25 18 0 1 -28 -29 -48
-25 -16 -33 -18 -29 -7 7 18 -18 21 -29 3 -5 -7 -3 -8 6 -3 9 6 11 4 6 -4 -5
-7 -14 -10 -22 -7 -8 3 -14 2 -14 -2 0 -4 -10 -12 -22 -17 -13 -6 -22 -18 -22
-27 1 -14 -2 -16 -14 -9 -11 6 -26 4 -43 -4 -26 -14 -39 -11 -39 8 0 5 6 7 13
4 8 -3 20 -1 28 4 11 8 9 9 -6 7 -13 -2 -20 2 -19 13 1 12 -5 15 -20 11 -11
-3 -24 -10 -28 -16 -4 -6 -8 3 -8 19 0 21 3 26 9 16 5 -8 16 -11 26 -8 9 4 14
11 11 16 -4 5 7 15 23 22 34 15 31 29 -5 29 -13 0 -24 4 -24 9 0 14 40 20 68
10 21 -8 23 -12 12 -19 -12 -8 -12 -10 -1 -10 8 0 11 -7 8 -20 -3 -11 -1 -20
4 -20 5 0 9 5 9 10 0 6 5 10 11 10 5 0 8 -4 4 -9 -3 -5 0 -13 7 -17 7 -4 10
-4 6 0 -13 15 36 55 72 58 43 4 51 29 15 52 -23 15 -28 15 -55 1 -32 -16 -38
-33 -18 -53 9 -9 7 -12 -10 -12 -25 0 -25 0 -12 34 5 14 6 26 1 26 -5 0 -12
-8 -15 -17 -6 -15 -10 -14 -29 8 -12 14 -29 24 -37 21 -21 -7 -60 -43 -60 -57
0 -17 -41 -57 -54 -52 -6 3 -17 -2 -24 -9 -7 -8 -10 -14 -7 -14 3 0 1 -6 -5
-12 -6 -7 -18 -22 -26 -33 -9 -11 -13 -15 -10 -8 11 20 -54 -17 -69 -41 -10
-15 -12 -34 -8 -61 6 -36 7 -38 14 -15 l7 25 1 -27 c1 -18 -6 -31 -19 -38 -11
-6 -20 -15 -20 -21 0 -6 6 -7 13 -3 10 6 10 4 0 -7 -7 -7 -13 -26 -13 -42 0
-15 -4 -26 -9 -23 -5 3 -7 16 -4 29 l6 22 -22 -21 c-14 -13 -19 -26 -15 -38 5
-14 9 -15 15 -4 6 9 9 2 9 -19 0 -25 -4 -31 -15 -27 -19 8 -19 -14 -1 -83 46
-171 192 -309 374 -353 62 -14 182 -8 255 14 51 15 172 92 182 115 4 10 -1 10
-19 -3 -40 -25 -37 -20 15 33 54 54 61 84 27 102 -19 9 -21 9 -10 -2 18 -20
15 -31 -6 -18 -16 10 -25 6 -57 -24 -40 -38 -53 -41 -40 -10 14 32 14 43 -1
43 -8 0 -14 -4 -14 -10 0 -5 -9 -10 -20 -10 -21 0 -27 15 -10 25 6 4 8 10 5
15 -3 5 -1 11 5 15 5 3 10 1 10 -5 0 -6 5 -8 10 -5 14 9 12 25 -2 23 -8 -2
-13 7 -12 20 0 12 -2 22 -6 22 -4 0 -7 7 -7 15 0 8 4 15 8 15 4 0 2 11 -4 24
-7 13 -16 22 -21 19 -5 -4 -6 -1 -1 6 4 7 16 11 26 8 12 -3 19 0 19 9 0 8 -4
14 -9 14 -9 0 -27 57 -23 74 4 12 -20 38 -27 29 -3 -5 -19 -13 -36 -18 -16 -6
-30 -16 -30 -22 0 -18 -13 -26 -31 -19 -14 5 -14 9 4 40 15 25 17 33 6 29 -9
-3 -14 2 -14 16 0 18 -3 20 -19 11 -27 -14 -31 -13 -30 8 0 10 3 12 6 5 3 -10
10 -10 24 -2 11 5 17 14 15 18 -3 4 1 16 8 26 12 17 15 17 29 3 9 -9 13 -18
10 -22 -4 -3 -2 -6 4 -6 6 0 14 7 17 16 3 8 10 12 16 9 5 -3 10 3 10 14 0 25
15 28 24 5 3 -8 2 -12 -4 -9 -6 3 -10 2 -10 -2 0 -5 17 -10 37 -10 23 -1 42
-8 50 -19 10 -14 13 -15 14 -3 1 8 1 17 0 21 0 4 5 5 13 2 20 -8 28 -44 10
-44 -8 0 -14 -7 -14 -16 0 -10 6 -14 15 -10 10 4 15 -1 15 -14 0 -11 -4 -20
-9 -20 -5 0 -2 -19 6 -42 17 -50 28 -65 18 -25 -4 16 -3 27 3 27 5 0 13 11 16
25 4 14 11 25 17 25 6 0 9 -7 5 -15 -3 -8 -1 -15 4 -15 6 0 10 -9 10 -21 0
-13 -5 -19 -12 -16 -9 3 -14 -7 -15 -29 -2 -39 9 -43 31 -12 l16 22 0 -26 c0
-15 4 -29 8 -32 4 -2 8 20 8 50 -1 36 -5 54 -13 54 -7 0 -13 11 -13 25 0 22
-9 30 -32 26 -5 0 -8 13 -8 29 0 19 -6 33 -16 37 -8 3 -13 11 -10 18 2 7 -4
21 -15 31 -11 10 -18 23 -15 29 2 6 -3 20 -10 30 -14 19 -15 19 -20 -1 -4 -14
-13 -20 -27 -19 -12 1 -22 3 -22 4 0 2 -11 4 -25 7 -16 3 -20 1 -12 -4 11 -7
11 -11 0 -19 -20 -15 -48 -23 -48 -13 0 5 8 11 18 13 16 4 16 5 0 6 -20 1 -24
16 -8 26 6 4 8 11 5 16 -4 5 3 9 14 9 10 0 22 6 24 13 4 9 8 9 15 -1 7 -11 10
-9 15 7 7 27 34 27 42 1 3 -11 10 -20 15 -20 5 0 16 -3 26 -7 12 -4 15 -2 12
8 -3 8 -10 14 -16 14 -6 0 -23 14 -39 31 -15 17 -38 35 -50 38 -24 8 -30 21
-14 31 5 3 16 -2 24 -10 9 -8 26 -15 39 -16 13 0 17 -3 11 -6 -31 -12 -9 -28
54 -39 15 -3 35 -12 44 -20 16 -14 20 -28 33 -106 3 -15 12 -40 20 -57 9 -16
16 -37 16 -46 0 -8 9 -15 19 -15 17 0 19 6 17 48 -7 99 -108 219 -256 303 -61
35 -76 39 -88 27z m23 -28 c3 -5 1 -10 -4 -10 -6 0 -11 5 -11 10 0 6 2 10 4
10 3 0 8 -4 11 -10z m39 -22 c-3 -4 -9 -8 -15 -8 -5 0 -9 4 -9 8 0 5 7 9 15 9
8 0 12 -4 9 -9z m-144 -88 c0 -5 -2 -10 -4 -10 -3 0 -8 5 -11 10 -3 6 -1 10 4
10 6 0 11 -4 11 -10z m-303 -48 c13 -4 19 -11 15 -17 -4 -7 -19 -4 -42 7 -35
18 -20 23 27 10z m376 -16 c-4 -6 -6 -20 -4 -31 3 -20 3 -20 -18 -1 -25 23
-27 36 -5 36 8 0 12 4 9 10 -3 6 1 7 9 4 9 -3 13 -11 9 -18z m-492 -52 c-15
-19 -21 -22 -21 -10 0 9 4 16 9 16 5 0 13 10 17 23 4 12 9 16 11 10 3 -7 -5
-25 -16 -39z m56 -4 c2 -23 -13 -35 -23 -19 -5 8 -3 9 6 4 9 -5 10 -2 5 14 -3
11 -3 21 2 21 5 0 9 -9 10 -20z m64 10 c20 0 26 -24 9 -35 -6 -3 -7 1 -4 9 4
11 0 16 -15 16 -12 0 -21 -6 -21 -15 0 -8 -4 -15 -10 -15 -5 0 -10 -7 -10 -15
0 -9 -11 -20 -25 -25 -16 -6 -23 -14 -19 -25 7 -17 34 -21 34 -5 0 6 9 19 21
31 20 20 21 20 34 2 7 -10 17 -15 21 -10 4 4 2 7 -4 7 -7 0 -12 5 -12 11 0 14
18 2 29 -19 7 -14 5 -17 -14 -17 -13 0 -21 3 -19 6 2 4 -2 9 -9 12 -13 5 -39
-17 -31 -26 3 -2 -9 -9 -25 -15 -24 -8 -34 -8 -45 3 -7 8 -15 13 -17 12 -2 -1
7 8 20 21 13 12 30 22 38 22 7 0 13 3 12 8 -3 17 14 52 25 52 6 0 4 5 -4 11
-12 9 -12 10 3 5 10 -3 27 -6 38 -6z m189 -60 c0 -5 -4 -10 -10 -10 -5 0 -10
5 -10 10 0 6 5 10 10 10 6 0 10 -4 10 -10z m71 -39 c18 -16 36 -28 40 -25 4 2
7 -11 6 -30 -1 -34 -1 -34 -41 -29 -49 5 -41 -7 11 -18 l38 -8 -40 2 c-49 1
-70 14 -54 33 6 8 15 12 19 9 8 -5 -3 66 -14 83 -12 19 -1 14 35 -17z m-81
-21 c0 -5 -4 -10 -10 -10 -5 0 -10 5 -10 10 0 6 5 10 10 10 6 0 10 -4 10 -10z
m-75 -39 c-4 -3 -11 1 -16 9 -8 12 -9 11 -6 -5 2 -11 8 -19 15 -18 6 2 16 -6
22 -17 7 -14 7 -20 0 -20 -5 0 -10 -8 -11 -17 0 -12 -4 -8 -11 10 -5 15 -13
25 -17 23 -3 -2 -7 13 -7 35 -1 38 0 39 18 23 10 -10 16 -20 13 -23z m-217 -6
c-3 -3 -9 2 -12 12 -6 14 -5 15 5 6 7 -7 10 -15 7 -18z m-19 -38 c-1 -18 -3
-24 -6 -14 -2 9 -8 15 -12 12 -5 -2 -6 7 -3 20 6 34 22 21 21 -18z m578 37
c-3 -3 -12 -4 -19 -1 -8 3 -5 6 6 6 11 1 17 -2 13 -5z m-27 -26 c0 5 7 9 15 9
13 0 13 -3 -1 -25 -9 -13 -11 -21 -5 -18 13 8 14 4 5 -18 -7 -17 -34 -22 -34
-6 0 5 -7 7 -15 4 -11 -5 -13 -2 -9 10 7 18 -25 23 -42 6 -7 -7 -11 -7 -11 3
0 7 11 14 25 15 31 3 44 11 36 24 -4 6 2 6 15 -1 11 -7 21 -8 21 -3z m-580
-94 c0 -19 4 -34 9 -34 5 0 7 10 5 23 -2 12 -1 15 2 7 4 -8 13 -22 21 -31 12
-15 11 -16 -11 -16 -17 0 -28 6 -32 20 -10 30 -11 76 -2 71 4 -3 8 -21 8 -40z
m470 36 c0 -5 -5 -10 -11 -10 -5 0 -7 5 -4 10 3 6 8 10 11 10 2 0 4 -4 4 -10z
m17 -32 c-3 -7 -5 -2 -5 12 0 14 2 19 5 13 2 -7 2 -19 0 -25z m-28 -29 c-16
-23 -32 -27 -37 -7 -2 9 0 8 7 -2 9 -13 12 -12 17 8 4 12 11 22 16 22 6 0 4
-9 -3 -21z m-169 -30 c0 -6 9 -9 20 -6 11 3 20 1 20 -4 0 -5 -4 -9 -10 -9 -5
0 -10 -6 -10 -14 0 -7 -7 -19 -15 -26 -8 -7 -13 -16 -10 -20 2 -4 -7 -6 -21
-6 -14 1 -30 9 -35 19 -8 13 -6 15 5 11 8 -3 21 5 30 18 10 13 12 24 6 26 -12
4 -3 22 11 22 5 0 9 -5 9 -11z m-30 -29 c0 -5 -4 -10 -10 -10 -5 0 -10 5 -10
10 0 6 5 10 10 10 6 0 10 -4 10 -10z m115 -29 c3 -5 2 -12 -3 -15 -5 -3 -9 1
-9 9 0 17 3 19 12 6z m-25 -16 c0 -8 -4 -15 -10 -15 -5 0 -7 7 -4 15 4 8 8 15
10 15 2 0 4 -7 4 -15z m200 -35 c0 -5 -2 -10 -4 -10 -3 0 -8 5 -11 10 -3 6 -1
10 4 10 6 0 11 -4 11 -10z m-110 -24 c0 -2 -6 -6 -14 -9 -8 -3 -16 2 -19 14
-4 16 -2 17 14 8 10 -5 19 -11 19 -13z m-305 -7 c11 -17 -1 -21 -15 -4 -8 9
-8 15 -2 15 6 0 14 -5 17 -11z m125 -11 c0 -16 -3 -19 -11 -11 -6 6 -8 16 -5
22 11 17 16 13 16 -11z m45 2 c10 -11 16 -20 13 -20 -3 0 -13 9 -23 20 -10 11
-16 20 -13 20 3 0 13 -9 23 -20z m341 -20 c-1 -16 -5 -30 -10 -30 -5 0 -3 -6
3 -14 9 -11 9 -16 0 -22 -8 -4 -9 -3 -5 4 5 8 -1 12 -15 12 -19 0 -20 2 -8 17
10 11 10 14 2 9 -8 -4 -13 -2 -13 4 0 6 -4 9 -9 5 -5 -3 -12 -1 -15 4 -4 5 6
7 23 5 22 -4 30 0 34 16 8 29 14 25 13 -10z m-181 -30 c-3 -5 -12 -10 -18 -10
-7 0 -6 4 3 10 19 12 23 12 15 0z m126 -64 c-16 -17 -19 -25 -10 -28 9 -3 7
-7 -5 -11 -10 -4 -15 -3 -11 3 7 11 -15 13 -39 4 -9 -3 -13 -10 -10 -15 3 -5
11 -6 17 -3 8 5 9 4 2 -4 -5 -6 -22 -13 -36 -17 -20 -5 -28 -2 -33 11 -4 10
-4 15 0 12 8 -9 44 35 44 52 0 7 8 10 20 7 11 -3 20 -1 20 5 0 6 11 8 25 6 14
-3 25 -1 25 5 0 6 3 7 7 4 3 -4 -4 -18 -16 -31z m82 -3 c-3 -8 -12 -13 -21
-11 -21 4 -28 28 -8 28 9 0 16 6 16 13 0 8 3 8 9 -2 5 -8 7 -20 4 -28z m-183
12 c-7 -9 -15 -13 -19 -10 -3 3 1 10 9 15 21 14 24 12 10 -5z m-37 -32 c-7 -2
-19 -2 -25 0 -7 3 -2 5 12 5 14 0 19 -2 13 -5z m-196 -9 c-3 -3 -12 -4 -19 -1
-8 3 -5 6 6 6 11 1 17 -2 13 -5z m383 0 c0 -8 -19 -13 -24 -6 -3 5 1 9 9 9 8
0 15 -2 15 -3z m-220 -18 c0 -11 -19 -15 -25 -6 -3 5 1 10 9 10 9 0 16 -2 16
-4z"/>
<path d="M3170 4225 c0 -8 5 -15 10 -15 6 0 10 7 10 15 0 8 -4 15 -10 15 -5 0
-10 -7 -10 -15z"/>
<path d="M2875 4040 c-3 -5 1 -10 9 -10 8 0 18 5 21 10 3 6 -1 10 -9 10 -8 0
-18 -4 -21 -10z"/>
<path d="M2776 4635 c-19 -15 -19 -15 4 -15 23 0 23 0 4 -15 -10 -8 -14 -15
-7 -15 14 0 27 18 28 42 2 22 -4 22 -29 3z"/>
<path d="M3265 4530 c-4 -6 -3 -16 3 -22 6 -6 12 -6 17 2 4 6 3 16 -3 22 -6 6
-12 6 -17 -2z"/>
<path d="M3230 4369 c0 -5 -4 -8 -9 -4 -5 3 -13 0 -17 -6 -5 -9 0 -10 17 -6
13 4 28 7 32 7 5 0 5 5 2 10 -8 13 -25 13 -25 -1z"/>
<path d="M3250 4310 c0 -11 7 -23 15 -26 8 -4 15 -12 15 -19 0 -6 9 -20 20
-30 17 -15 20 -16 25 -3 10 25 -27 93 -53 96 -17 3 -22 -2 -22 -18z"/>
<path d="M3255 4230 c3 -5 8 -10 11 -10 2 0 4 5 4 10 0 6 -5 10 -11 10 -5 0
-7 -4 -4 -10z"/>
<path d="M3295 4100 c-3 -5 1 -10 9 -10 9 0 16 5 16 10 0 6 -4 10 -9 10 -6 0
-13 -4 -16 -10z"/>
<path d="M3340 4050 c0 -5 5 -10 10 -10 6 0 10 5 10 10 0 6 -4 10 -10 10 -5 0
-10 -4 -10 -10z"/>
<path d="M2667 3362 l-127 -127 0 -188 0 -187 375 0 375 0 0 -60 0 -60 -375 0
-375 0 0 -130 0 -130 373 0 372 0 128 128 127 127 0 188 0 187 -375 0 -375 0
0 65 0 65 375 0 375 0 0 125 0 125 -373 0 -372 0 -128 -128z"/>
<path d="M1412 3357 l-122 -122 0 -373 0 -372 125 0 125 0 0 185 0 185 250 0
250 0 0 -185 0 -185 125 0 125 0 0 368 0 367 -128 128 -127 127 -250 0 -250 0
-123 -123z m628 -182 l0 -65 -255 0 -255 0 0 58 c0 32 3 62 7 65 3 4 118 7
255 7 l248 0 0 -65z"/>
<path d="M3917 3352 l-127 -127 0 -368 0 -367 125 0 125 0 0 185 0 185 255 0
255 0 0 -185 0 -185 120 0 120 0 0 373 0 372 -123 123 -122 122 -250 0 -250 0
-128 -128z m631 -179 l3 -63 -256 0 -255 0 0 65 0 65 253 -2 252 -3 3 -62z"/>
<path d="M167 2112 l-127 -127 0 -188 0 -187 375 0 375 0 0 -60 0 -60 -375 0
-375 0 0 -130 0 -130 373 0 372 0 128 128 127 127 0 188 0 187 -375 0 -375 0
0 60 0 60 375 0 375 0 0 130 0 130 -373 0 -372 0 -128 -128z"/>
<path d="M1290 2105 l0 -125 185 0 185 0 2 -372 3 -373 123 -3 122 -3 0 375 0
376 188 2 187 3 3 123 3 122 -501 0 -500 0 0 -125z"/>
<path d="M2667 2102 l-127 -127 0 -368 0 -367 125 0 125 0 0 185 0 185 250 0
250 0 0 -185 0 -185 125 0 125 0 0 368 0 367 -128 128 -127 127 -245 0 -245 0
-128 -128z m623 -177 l0 -65 -250 0 -250 0 0 65 0 65 250 0 250 0 0 -65z"/>
<path d="M3792 2108 l3 -123 188 -3 187 -2 0 -376 0 -375 123 3 122 3 3 373 2
372 185 0 185 0 0 125 0 125 -500 0 -501 0 3 -122z"/>
<path d="M5162 2107 l-122 -122 0 -188 0 -187 375 0 375 0 0 -65 0 -65 -375 0
-376 0 3 -122 3 -123 370 -3 369 -2 128 127 128 128 0 187 0 188 -375 0 -375
0 0 60 0 60 375 0 375 0 0 125 0 125 -378 0 -377 0 -123 -123z"/>
</g>
</svg>
